<svg xmlns="http://www.w3.org/2000/svg" viewBox="0 0 800 1131" width="800" height="1131">
  <!-- EDIT ME: Replace this placeholder with a real report page export -->
  <rect width="800" height="1131" fill="#FAF7F0"/>
  <rect width="800" height="56" fill="#F2EEE2"/>
  <line x1="0" y1="56" x2="800" y2="56" stroke="#1A1A1A" stroke-width="0.5" opacity="0.15"/>
  <text x="40" y="34" font-family="Georgia,serif" font-size="9" fill="#8A8A82" letter-spacing="2">NORTHWIND ANALYTICS · CONFIDENTIAL</text>
  <text x="760" y="34" font-family="Georgia,serif" font-size="9" fill="#8A8A82" text-anchor="end" letter-spacing="2">PAGE 03</text>
  <text x="40" y="105" font-family="Georgia,serif" font-size="9" fill="#C8102E" letter-spacing="3">§ 02 · MENU ANALYSIS</text>
  <text x="40" y="145" font-family="Georgia,serif" font-size="26" fill="#1A1A1A">The four-quadrant menu</text>
  <rect x="40" y="157" width="28" height="1" fill="#C8102E"/>
  <rect x="40" y="177" width="480" height="9" fill="#1A1A1A" opacity="0.10" rx="2"/>
  <rect x="40" y="194" width="440" height="9" fill="#1A1A1A" opacity="0.10" rx="2"/>
  <!-- 2x2 quadrant chart -->
  <rect x="40" y="230" width="480" height="380" fill="none" stroke="#1A1A1A" stroke-width="0.5" opacity="0.18"/>
  <line x1="280" y1="230" x2="280" y2="610" stroke="#1A1A1A" stroke-width="0.5" opacity="0.15"/>
  <line x1="40"  y1="420" x2="520" y2="420" stroke="#1A1A1A" stroke-width="0.5" opacity="0.15"/>
  <!-- quadrant labels -->
  <text x="145" y="310" font-family="Georgia,serif" font-size="9" fill="#C8102E" opacity="0.5" text-anchor="middle" letter-spacing="2">STARS</text>
  <text x="385" y="310" font-family="Georgia,serif" font-size="9" fill="#8A8A82" opacity="0.6" text-anchor="middle" letter-spacing="2">PUZZLES</text>
  <text x="145" y="520" font-family="Georgia,serif" font-size="9" fill="#8A8A82" opacity="0.6" text-anchor="middle" letter-spacing="2">WORKHORSES</text>
  <text x="385" y="520" font-family="Georgia,serif" font-size="9" fill="#8A8A82" opacity="0.6" text-anchor="middle" letter-spacing="2">DOGS</text>
  <!-- dots in quadrants -->
  <circle cx="110" cy="280" r="5" fill="#C8102E" opacity="0.4"/>
  <circle cx="160" cy="295" r="4" fill="#C8102E" opacity="0.35"/>
  <circle cx="200" cy="340" r="6" fill="#C8102E" opacity="0.30"/>
  <circle cx="370" cy="285" r="3" fill="#1A1A1A" opacity="0.20"/>
  <circle cx="420" cy="310" r="4" fill="#1A1A1A" opacity="0.20"/>
  <circle cx="100" cy="480" r="7" fill="#1A1A1A" opacity="0.20"/>
  <circle cx="200" cy="500" r="5" fill="#1A1A1A" opacity="0.20"/>
  <circle cx="380" cy="490" r="3" fill="#1A1A1A" opacity="0.15"/>
  <circle cx="440" cy="510" r="4" fill="#1A1A1A" opacity="0.15"/>
  <circle cx="460" cy="470" r="3" fill="#1A1A1A" opacity="0.15"/>
  <!-- axis labels -->
  <text x="280" y="640" font-family="Georgia,serif" font-size="9" fill="#8A8A82" text-anchor="middle" letter-spacing="2">VOLUME →</text>
  <!-- redacted data -->
  <rect x="560" y="230" width="200" height="14" fill="#1A1A1A" opacity="0.75" rx="0"/>
  <rect x="560" y="255" width="200" height="9" fill="#1A1A1A" opacity="0.10" rx="2"/>
  <rect x="560" y="272" width="180" height="9" fill="#1A1A1A" opacity="0.10" rx="2"/>
  <rect x="560" y="289" width="195" height="9" fill="#1A1A1A" opacity="0.10" rx="2"/>
  <rect x="560" y="320" width="160" height="14" fill="#1A1A1A" opacity="0.75" rx="0"/>
  <rect x="560" y="345" width="200" height="9" fill="#1A1A1A" opacity="0.10" rx="2"/>
  <!-- body text -->
  <rect x="40" y="670" width="720" height="9" fill="#1A1A1A" opacity="0.10" rx="2"/>
  <rect x="40" y="687" width="680" height="9" fill="#1A1A1A" opacity="0.10" rx="2"/>
  <rect x="40" y="704" width="700" height="9" fill="#1A1A1A" opacity="0.10" rx="2"/>
  <rect x="40" y="721" width="640" height="9" fill="#1A1A1A" opacity="0.10" rx="2"/>
  <text x="400" y="880" font-family="Georgia,serif" font-size="16" fill="#1A1A1A" opacity="0.18" text-anchor="middle" letter-spacing="5">REPORT · PAGE 03</text>
  <line x1="40" y1="1090" x2="760" y2="1090" stroke="#1A1A1A" stroke-width="0.5" opacity="0.10"/>
  <text x="40"  y="1110" font-family="Georgia,serif" font-size="8" fill="#8A8A82" letter-spacing="2">NW · S-001 · TIER 1 · ANONYMISED</text>
  <text x="760" y="1110" font-family="Georgia,serif" font-size="8" fill="#8A8A82" text-anchor="end" letter-spacing="2">© 2026 NORTHWIND ANALYTICS</text>
</svg>
